{"metadata":{"kernelspec":{"language":"python","display_name":"Python 3","name":"python3"},"language_info":{"name":"python","version":"3.11.11","mimetype":"text/x-python","codemirror_mode":{"name":"ipython","version":3},"pygments_lexer":"ipython3","nbconvert_exporter":"python","file_extension":".py"},"kaggle":{"accelerator":"nvidiaTeslaT4","dataSources":[{"sourceId":11215755,"sourceType":"datasetVersion","datasetId":7003773},{"sourceId":11311047,"sourceType":"datasetVersion","datasetId":7024241}],"dockerImageVersionId":31011,"isInternetEnabled":true,"language":"python","sourceType":"notebook","isGpuEnabled":true}},"nbformat_minor":4,"nbformat":4,"cells":[{"cell_type":"code","source":"!pip install torchvision librosa==0.9.2 opencv-python-headless ffmpeg-python","metadata":{"_uuid":"8f2839f25d086af736a60e9eeb907d3b93b6e0e5","_cell_guid":"b1076dfc-b9ad-4769-8c92-a6c4dae69d19","trusted":true,"execution":{"iopub.status.busy":"2025-04-17T14:03:43.453676Z","iopub.execute_input":"2025-04-17T14:03:43.454126Z","iopub.status.idle":"2025-04-17T14:04:53.021627Z","shell.execute_reply.started":"2025-04-17T14:03:43.454102Z","shell.execute_reply":"2025-04-17T14:04:53.020644Z"}},"outputs":[{"name":"stdout","text":"Requirement already satisfied: torchvision in /usr/local/lib/python3.11/dist-packages (0.20.1+cu124)\nCollecting librosa==0.9.2\n  Downloading librosa-0.9.2-py3-none-any.whl.metadata (8.2 kB)\nRequirement already satisfied: opencv-python-headless in /usr/local/lib/python3.11/dist-packages (4.11.0.86)\nCollecting ffmpeg-python\n  Downloading ffmpeg_python-0.2.0-py3-none-any.whl.metadata (1.7 kB)\nRequirement already satisfied: audioread>=2.1.9 in /usr/local/lib/python3.11/dist-packages (from librosa==0.9.2) (3.0.1)\nRequirement already satisfied: numpy>=1.17.0 in /usr/local/lib/python3.11/dist-packages (from librosa==0.9.2) (1.26.4)\nRequirement already satisfied: scipy>=1.2.0 in /usr/local/lib/python3.11/dist-packages (from librosa==0.9.2) (1.15.2)\nRequirement already satisfied: scikit-learn>=0.19.1 in /usr/local/lib/python3.11/dist-packages (from librosa==0.9.2) (1.2.2)\nRequirement already satisfied: joblib>=0.14 in /usr/local/lib/python3.11/dist-packages (from librosa==0.9.2) (1.4.2)\nRequirement already satisfied: decorator>=4.0.10 in /usr/local/lib/python3.11/dist-packages (from librosa==0.9.2) (4.4.2)\nCollecting resampy>=0.2.2 (from librosa==0.9.2)\n  Downloading resampy-0.4.3-py3-none-any.whl.metadata (3.0 kB)\nRequirement already satisfied: numba>=0.45.1 in /usr/local/lib/python3.11/dist-packages (from librosa==0.9.2) (0.60.0)\nRequirement already satisfied: soundfile>=0.10.2 in /usr/local/lib/python3.11/dist-packages (from librosa==0.9.2) (0.13.1)\nRequirement already satisfied: pooch>=1.0 in /usr/local/lib/python3.11/dist-packages (from librosa==0.9.2) (1.8.2)\nRequirement already satisfied: packaging>=20.0 in /usr/local/lib/python3.11/dist-packages (from librosa==0.9.2) (24.2)\nRequirement already satisfied: torch==2.5.1 in /usr/local/lib/python3.11/dist-packages (from torchvision) (2.5.1+cu124)\nRequirement already satisfied: pillow!=8.3.*,>=5.3.0 in /usr/local/lib/python3.11/dist-packages (from torchvision) (11.1.0)\nRequirement already satisfied: filelock in /usr/local/lib/python3.11/dist-packages (from torch==2.5.1->torchvision) (3.18.0)\nRequirement already satisfied: typing-extensions>=4.8.0 in /usr/local/lib/python3.11/dist-packages (from torch==2.5.1->torchvision) (4.13.1)\nRequirement already satisfied: networkx in /usr/local/lib/python3.11/dist-packages (from torch==2.5.1->torchvision) (3.4.2)\nRequirement already satisfied: jinja2 in /usr/local/lib/python3.11/dist-packages (from torch==2.5.1->torchvision) (3.1.6)\nRequirement already satisfied: fsspec in /usr/local/lib/python3.11/dist-packages (from torch==2.5.1->torchvision) (2025.3.2)\nRequirement already satisfied: nvidia-cuda-nvrtc-cu12==12.4.127 in /usr/local/lib/python3.11/dist-packages (from torch==2.5.1->torchvision) (12.4.127)\nRequirement already satisfied: nvidia-cuda-runtime-cu12==12.4.127 in /usr/local/lib/python3.11/dist-packages (from torch==2.5.1->torchvision) (12.4.127)\nRequirement already satisfied: nvidia-cuda-cupti-cu12==12.4.127 in /usr/local/lib/python3.11/dist-packages (from torch==2.5.1->torchvision) (12.4.127)\nCollecting nvidia-cudnn-cu12==9.1.0.70 (from torch==2.5.1->torchvision)\n  Downloading nvidia_cudnn_cu12-9.1.0.70-py3-none-manylinux2014_x86_64.whl.metadata (1.6 kB)\nCollecting nvidia-cublas-cu12==12.4.5.8 (from torch==2.5.1->torchvision)\n  Downloading nvidia_cublas_cu12-12.4.5.8-py3-none-manylinux2014_x86_64.whl.metadata (1.5 kB)\nCollecting nvidia-cufft-cu12==11.2.1.3 (from torch==2.5.1->torchvision)\n  Downloading nvidia_cufft_cu12-11.2.1.3-py3-none-manylinux2014_x86_64.whl.metadata (1.5 kB)\nCollecting nvidia-curand-cu12==10.3.5.147 (from torch==2.5.1->torchvision)\n  Downloading nvidia_curand_cu12-10.3.5.147-py3-none-manylinux2014_x86_64.whl.metadata (1.5 kB)\nCollecting nvidia-cusolver-cu12==11.6.1.9 (from torch==2.5.1->torchvision)\n  Downloading nvidia_cusolver_cu12-11.6.1.9-py3-none-manylinux2014_x86_64.whl.metadata (1.6 kB)\nCollecting nvidia-cusparse-cu12==12.3.1.170 (from torch==2.5.1->torchvision)\n  Downloading nvidia_cusparse_cu12-12.3.1.170-py3-none-manylinux2014_x86_64.whl.metadata (1.6 kB)\nRequirement already satisfied: nvidia-nccl-cu12==2.21.5 in /usr/local/lib/python3.11/dist-packages (from torch==2.5.1->torchvision) (2.21.5)\nRequirement already satisfied: nvidia-nvtx-cu12==12.4.127 in /usr/local/lib/python3.11/dist-packages (from torch==2.5.1->torchvision) (12.4.127)\nCollecting nvidia-nvjitlink-cu12==12.4.127 (from torch==2.5.1->torchvision)\n  Downloading nvidia_nvjitlink_cu12-12.4.127-py3-none-manylinux2014_x86_64.whl.metadata (1.5 kB)\nRequirement already satisfied: triton==3.1.0 in /usr/local/lib/python3.11/dist-packages (from torch==2.5.1->torchvision) (3.1.0)\nRequirement already satisfied: sympy==1.13.1 in /usr/local/lib/python3.11/dist-packages (from torch==2.5.1->torchvision) (1.13.1)\nRequirement already satisfied: mpmath<1.4,>=1.1.0 in /usr/local/lib/python3.11/dist-packages (from sympy==1.13.1->torch==2.5.1->torchvision) (1.3.0)\nRequirement already satisfied: future in /usr/local/lib/python3.11/dist-packages (from ffmpeg-python) (1.0.0)\nRequirement already satisfied: llvmlite<0.44,>=0.43.0dev0 in /usr/local/lib/python3.11/dist-packages (from numba>=0.45.1->librosa==0.9.2) (0.43.0)\nRequirement already satisfied: mkl_fft in /usr/local/lib/python3.11/dist-packages (from numpy>=1.17.0->librosa==0.9.2) (1.3.8)\nRequirement already satisfied: mkl_random in /usr/local/lib/python3.11/dist-packages (from numpy>=1.17.0->librosa==0.9.2) (1.2.4)\nRequirement already satisfied: mkl_umath in /usr/local/lib/python3.11/dist-packages (from numpy>=1.17.0->librosa==0.9.2) (0.1.1)\nRequirement already satisfied: mkl in /usr/local/lib/python3.11/dist-packages (from numpy>=1.17.0->librosa==0.9.2) (2025.1.0)\nRequirement already satisfied: tbb4py in /usr/local/lib/python3.11/dist-packages (from numpy>=1.17.0->librosa==0.9.2) (2022.1.0)\nRequirement already satisfied: mkl-service in /usr/local/lib/python3.11/dist-packages (from numpy>=1.17.0->librosa==0.9.2) (2.4.1)\nRequirement already satisfied: platformdirs>=2.5.0 in /usr/local/lib/python3.11/dist-packages (from pooch>=1.0->librosa==0.9.2) (4.3.7)\nRequirement already satisfied: requests>=2.19.0 in /usr/local/lib/python3.11/dist-packages (from pooch>=1.0->librosa==0.9.2) (2.32.3)\nRequirement already satisfied: threadpoolctl>=2.0.0 in /usr/local/lib/python3.11/dist-packages (from scikit-learn>=0.19.1->librosa==0.9.2) (3.6.0)\nRequirement already satisfied: cffi>=1.0 in /usr/local/lib/python3.11/dist-packages (from soundfile>=0.10.2->librosa==0.9.2) (1.17.1)\nRequirement already satisfied: pycparser in /usr/local/lib/python3.11/dist-packages (from cffi>=1.0->soundfile>=0.10.2->librosa==0.9.2) (2.22)\nRequirement already satisfied: charset-normalizer<4,>=2 in /usr/local/lib/python3.11/dist-packages (from requests>=2.19.0->pooch>=1.0->librosa==0.9.2) (3.4.1)\nRequirement already satisfied: idna<4,>=2.5 in /usr/local/lib/python3.11/dist-packages (from requests>=2.19.0->pooch>=1.0->librosa==0.9.2) (3.10)\nRequirement already satisfied: urllib3<3,>=1.21.1 in /usr/local/lib/python3.11/dist-packages (from requests>=2.19.0->pooch>=1.0->librosa==0.9.2) (2.3.0)\nRequirement already satisfied: certifi>=2017.4.17 in /usr/local/lib/python3.11/dist-packages (from requests>=2.19.0->pooch>=1.0->librosa==0.9.2) (2025.1.31)\nRequirement already satisfied: MarkupSafe>=2.0 in /usr/local/lib/python3.11/dist-packages (from jinja2->torch==2.5.1->torchvision) (3.0.2)\nRequirement already satisfied: intel-openmp<2026,>=2024 in /usr/local/lib/python3.11/dist-packages (from mkl->numpy>=1.17.0->librosa==0.9.2) (2024.2.0)\nRequirement already satisfied: tbb==2022.* in /usr/local/lib/python3.11/dist-packages (from mkl->numpy>=1.17.0->librosa==0.9.2) (2022.1.0)\nRequirement already satisfied: tcmlib==1.* in /usr/local/lib/python3.11/dist-packages (from tbb==2022.*->mkl->numpy>=1.17.0->librosa==0.9.2) (1.2.0)\nRequirement already satisfied: intel-cmplr-lib-rt in /usr/local/lib/python3.11/dist-packages (from mkl_umath->numpy>=1.17.0->librosa==0.9.2) (2024.2.0)\nRequirement already satisfied: intel-cmplr-lib-ur==2024.2.0 in /usr/local/lib/python3.11/dist-packages (from intel-openmp<2026,>=2024->mkl->numpy>=1.17.0->librosa==0.9.2) (2024.2.0)\nDownloading librosa-0.9.2-py3-none-any.whl (214 kB)\n\u001b[2K   \u001b[90m━━━━━━━━━━━━━━━━━━━━━━━━━━━━━━━━━━━━━━━━\u001b[0m \u001b[32m214.3/214.3 kB\u001b[0m \u001b[31m4.7 MB/s\u001b[0m eta \u001b[36m0:00:00\u001b[0ma \u001b[36m0:00:01\u001b[0m\n\u001b[?25hDownloading nvidia_cublas_cu12-12.4.5.8-py3-none-manylinux2014_x86_64.whl (363.4 MB)\n\u001b[2K   \u001b[90m━━━━━━━━━━━━━━━━━━━━━━━━━━━━━━━━━━━━━━━━\u001b[0m \u001b[32m363.4/363.4 MB\u001b[0m \u001b[31m4.7 MB/s\u001b[0m eta \u001b[36m0:00:00\u001b[0m0:00:01\u001b[0m00:01\u001b[0m\n\u001b[?25hDownloading nvidia_cudnn_cu12-9.1.0.70-py3-none-manylinux2014_x86_64.whl (664.8 MB)\n\u001b[2K   \u001b[90m━━━━━━━━━━━━━━━━━━━━━━━━━━━━━━━━━━━━━━━━\u001b[0m \u001b[32m664.8/664.8 MB\u001b[0m \u001b[31m2.9 MB/s\u001b[0m eta \u001b[36m0:00:00\u001b[0m0:00:01\u001b[0m00:01\u001b[0m\n\u001b[?25hDownloading nvidia_cufft_cu12-11.2.1.3-py3-none-manylinux2014_x86_64.whl (211.5 MB)\n\u001b[2K   \u001b[90m━━━━━━━━━━━━━━━━━━━━━━━━━━━━━━━━━━━━━━━━\u001b[0m \u001b[32m211.5/211.5 MB\u001b[0m \u001b[31m8.0 MB/s\u001b[0m eta \u001b[36m0:00:00\u001b[0m0:00:01\u001b[0m00:01\u001b[0m\n\u001b[?25hDownloading nvidia_curand_cu12-10.3.5.147-py3-none-manylinux2014_x86_64.whl (56.3 MB)\n\u001b[2K   \u001b[90m━━━━━━━━━━━━━━━━━━━━━━━━━━━━━━━━━━━━━━━━\u001b[0m \u001b[32m56.3/56.3 MB\u001b[0m \u001b[31m31.1 MB/s\u001b[0m eta \u001b[36m0:00:00\u001b[0m:00:01\u001b[0m00:01\u001b[0m\n\u001b[?25hDownloading nvidia_cusolver_cu12-11.6.1.9-py3-none-manylinux2014_x86_64.whl (127.9 MB)\n\u001b[2K   \u001b[90m━━━━━━━━━━━━━━━━━━━━━━━━━━━━━━━━━━━━━━━━\u001b[0m \u001b[32m127.9/127.9 MB\u001b[0m \u001b[31m9.3 MB/s\u001b[0m eta \u001b[36m0:00:00\u001b[0m0:00:01\u001b[0m00:01\u001b[0m\n\u001b[?25hDownloading nvidia_cusparse_cu12-12.3.1.170-py3-none-manylinux2014_x86_64.whl (207.5 MB)\n\u001b[2K   \u001b[90m━━━━━━━━━━━━━━━━━━━━━━━━━━━━━━━━━━━━━━━━\u001b[0m \u001b[32m207.5/207.5 MB\u001b[0m \u001b[31m8.3 MB/s\u001b[0m eta \u001b[36m0:00:00\u001b[0m0:00:01\u001b[0m00:01\u001b[0m\n\u001b[?25hDownloading nvidia_nvjitlink_cu12-12.4.127-py3-none-manylinux2014_x86_64.whl (21.1 MB)\n\u001b[2K   \u001b[90m━━━━━━━━━━━━━━━━━━━━━━━━━━━━━━━━━━━━━━━━\u001b[0m \u001b[32m21.1/21.1 MB\u001b[0m \u001b[31m69.5 MB/s\u001b[0m eta \u001b[36m0:00:00\u001b[0m:00:01\u001b[0m00:01\u001b[0m\n\u001b[?25hDownloading ffmpeg_python-0.2.0-py3-none-any.whl (25 kB)\nDownloading resampy-0.4.3-py3-none-any.whl (3.1 MB)\n\u001b[2K   \u001b[90m━━━━━━━━━━━━━━━━━━━━━━━━━━━━━━━━━━━━━━━━\u001b[0m \u001b[32m3.1/3.1 MB\u001b[0m \u001b[31m88.9 MB/s\u001b[0m eta \u001b[36m0:00:00\u001b[0m:00:01\u001b[0m\n\u001b[?25hInstalling collected packages: nvidia-nvjitlink-cu12, nvidia-curand-cu12, nvidia-cufft-cu12, nvidia-cublas-cu12, ffmpeg-python, nvidia-cusparse-cu12, nvidia-cudnn-cu12, nvidia-cusolver-cu12, resampy, librosa\n  Attempting uninstall: nvidia-nvjitlink-cu12\n    Found existing installation: nvidia-nvjitlink-cu12 12.8.93\n    Uninstalling nvidia-nvjitlink-cu12-12.8.93:\n      Successfully uninstalled nvidia-nvjitlink-cu12-12.8.93\n  Attempting uninstall: nvidia-curand-cu12\n    Found existing installation: nvidia-curand-cu12 10.3.9.90\n    Uninstalling nvidia-curand-cu12-10.3.9.90:\n      Successfully uninstalled nvidia-curand-cu12-10.3.9.90\n  Attempting uninstall: nvidia-cufft-cu12\n    Found existing installation: nvidia-cufft-cu12 11.3.3.83\n    Uninstalling nvidia-cufft-cu12-11.3.3.83:\n      Successfully uninstalled nvidia-cufft-cu12-11.3.3.83\n  Attempting uninstall: nvidia-cublas-cu12\n    Found existing installation: nvidia-cublas-cu12 12.8.4.1\n    Uninstalling nvidia-cublas-cu12-12.8.4.1:\n      Successfully uninstalled nvidia-cublas-cu12-12.8.4.1\n  Attempting uninstall: nvidia-cusparse-cu12\n    Found existing installation: nvidia-cusparse-cu12 12.5.8.93\n    Uninstalling nvidia-cusparse-cu12-12.5.8.93:\n      Successfully uninstalled nvidia-cusparse-cu12-12.5.8.93\n  Attempting uninstall: nvidia-cudnn-cu12\n    Found existing installation: nvidia-cudnn-cu12 9.3.0.75\n    Uninstalling nvidia-cudnn-cu12-9.3.0.75:\n      Successfully uninstalled nvidia-cudnn-cu12-9.3.0.75\n  Attempting uninstall: nvidia-cusolver-cu12\n    Found existing installation: nvidia-cusolver-cu12 11.7.3.90\n    Uninstalling nvidia-cusolver-cu12-11.7.3.90:\n      Successfully uninstalled nvidia-cusolver-cu12-11.7.3.90\n  Attempting uninstall: librosa\n    Found existing installation: librosa 0.10.2.post1\n    Uninstalling librosa-0.10.2.post1:\n      Successfully uninstalled librosa-0.10.2.post1\n\u001b[31mERROR: pip's dependency resolver does not currently take into account all the packages that are installed. This behaviour is the source of the following dependency conflicts.\npylibcugraph-cu12 24.12.0 requires pylibraft-cu12==24.12.*, but you have pylibraft-cu12 25.2.0 which is incompatible.\npylibcugraph-cu12 24.12.0 requires rmm-cu12==24.12.*, but you have rmm-cu12 25.2.0 which is incompatible.\u001b[0m\u001b[31m\n\u001b[0mSuccessfully installed ffmpeg-python-0.2.0 librosa-0.9.2 nvidia-cublas-cu12-12.4.5.8 nvidia-cudnn-cu12-9.1.0.70 nvidia-cufft-cu12-11.2.1.3 nvidia-curand-cu12-10.3.5.147 nvidia-cusolver-cu12-11.6.1.9 nvidia-cusparse-cu12-12.3.1.170 nvidia-nvjitlink-cu12-12.4.127 resampy-0.4.3\n","output_type":"stream"}],"execution_count":1},{"cell_type":"code","source":"import os\nimport shutil\nimport torch\nfrom IPython.display import FileLink","metadata":{"trusted":true,"execution":{"iopub.status.busy":"2025-04-17T14:05:12.071883Z","iopub.execute_input":"2025-04-17T14:05:12.072541Z","iopub.status.idle":"2025-04-17T14:05:15.375299Z","shell.execute_reply.started":"2025-04-17T14:05:12.072508Z","shell.execute_reply":"2025-04-17T14:05:15.374750Z"}},"outputs":[],"execution_count":2},{"cell_type":"code","source":"print(\"GPU Available:\", torch.cuda.is_available())\nif torch.cuda.is_available():\n    print(\"CUDA Device:\", torch.cuda.get_device_name(0))\n    # Set device to GPU\n    device = torch.device(\"cuda\")\nelse:\n    print(\"No GPU available - using CPU\")\n    device = torch.device(\"cpu\")","metadata":{"trusted":true,"execution":{"iopub.status.busy":"2025-04-17T14:05:16.867050Z","iopub.execute_input":"2025-04-17T14:05:16.867963Z","iopub.status.idle":"2025-04-17T14:05:16.974572Z","shell.execute_reply.started":"2025-04-17T14:05:16.867929Z","shell.execute_reply":"2025-04-17T14:05:16.973891Z"}},"outputs":[{"name":"stdout","text":"GPU Available: True\nCUDA Device: Tesla T4\n","output_type":"stream"}],"execution_count":3},{"cell_type":"code","source":"print(\"GPU Available:\", torch.cuda.is_available())\nif torch.cuda.is_available():\n    print(\"CUDA Device:\", torch.cuda.get_device_name(0))\n    # Set device to GPU\n    device = torch.device(\"cuda\")\nelse:\n    print(\"No GPU available - using CPU\")\n    device = torch.device(\"cpu\")","metadata":{"trusted":true,"execution":{"iopub.status.busy":"2025-04-17T14:05:19.505860Z","iopub.execute_input":"2025-04-17T14:05:19.506140Z","iopub.status.idle":"2025-04-17T14:05:19.511159Z","shell.execute_reply.started":"2025-04-17T14:05:19.506119Z","shell.execute_reply":"2025-04-17T14:05:19.510330Z"}},"outputs":[{"name":"stdout","text":"GPU Available: True\nCUDA Device: Tesla T4\n","output_type":"stream"}],"execution_count":4},{"cell_type":"code","source":"# ---------------------------------------------------\nface_video = \"/kaggle/input/modi-voice/modi_video.mp4\"  # Video with face\naudio_file = \"/kaggle/input/modi-voice/tts-audio-2025-04-01T16_07_18.848Z.mp3\"  # Audio file","metadata":{"trusted":true,"execution":{"iopub.status.busy":"2025-04-17T14:05:21.332419Z","iopub.execute_input":"2025-04-17T14:05:21.332689Z","iopub.status.idle":"2025-04-17T14:05:21.336443Z","shell.execute_reply.started":"2025-04-17T14:05:21.332667Z","shell.execute_reply":"2025-04-17T14:05:21.335801Z"}},"outputs":[],"execution_count":5},{"cell_type":"code","source":"preprocessed_video = \"preprocessed_face5.mp4\"\n!ffmpeg -i \"{face_video}\" -c:v libx264 -profile:v high -crf 20 -pix_fmt yuv420p -strict -2 \"{preprocessed_video}\"","metadata":{"trusted":true,"execution":{"iopub.status.busy":"2025-04-17T14:05:23.034276Z","iopub.execute_input":"2025-04-17T14:05:23.034609Z","iopub.status.idle":"2025-04-17T14:05:33.869353Z","shell.execute_reply.started":"2025-04-17T14:05:23.034586Z","shell.execute_reply":"2025-04-17T14:05:33.868622Z"}},"outputs":[{"name":"stdout","text":"ffmpeg version 4.4.2-0ubuntu0.22.04.1 Copyright (c) 2000-2021 the FFmpeg developers\n  built with gcc 11 (Ubuntu 11.2.0-19ubuntu1)\n  configuration: --prefix=/usr --extra-version=0ubuntu0.22.04.1 --toolchain=hardened --libdir=/usr/lib/x86_64-linux-gnu --incdir=/usr/include/x86_64-linux-gnu --arch=amd64 --enable-gpl --disable-stripping --enable-gnutls --enable-ladspa --enable-libaom --enable-libass --enable-libbluray --enable-libbs2b --enable-libcaca --enable-libcdio --enable-libcodec2 --enable-libdav1d --enable-libflite --enable-libfontconfig --enable-libfreetype --enable-libfribidi --enable-libgme --enable-libgsm --enable-libjack --enable-libmp3lame --enable-libmysofa --enable-libopenjpeg --enable-libopenmpt --enable-libopus --enable-libpulse --enable-librabbitmq --enable-librubberband --enable-libshine --enable-libsnappy --enable-libsoxr --enable-libspeex --enable-libsrt --enable-libssh --enable-libtheora --enable-libtwolame --enable-libvidstab --enable-libvorbis --enable-libvpx --enable-libwebp --enable-libx265 --enable-libxml2 --enable-libxvid --enable-libzimg --enable-libzmq --enable-libzvbi --enable-lv2 --enable-omx --enable-openal --enable-opencl --enable-opengl --enable-sdl2 --enable-pocketsphinx --enable-librsvg --enable-libmfx --enable-libdc1394 --enable-libdrm --enable-libiec61883 --enable-chromaprint --enable-frei0r --enable-libx264 --enable-shared\n  libavutil      56. 70.100 / 56. 70.100\n  libavcodec     58.134.100 / 58.134.100\n  libavformat    58. 76.100 / 58. 76.100\n  libavdevice    58. 13.100 / 58. 13.100\n  libavfilter     7.110.100 /  7.110.100\n  libswscale      5.  9.100 /  5.  9.100\n  libswresample   3.  9.100 /  3.  9.100\n  libpostproc    55.  9.100 / 55.  9.100\nInput #0, mov,mp4,m4a,3gp,3g2,mj2, from '/kaggle/input/modi-voice/modi_video.mp4':\n  Metadata:\n    major_brand     : isom\n    minor_version   : 512\n    compatible_brands: isomiso2avc1mp41\n    encoder         : https://clipchamp.com\n    comment         : Create videos with https://clipchamp.com/en/video-editor - free online video editor, video compressor, video converter.\n  Duration: 00:00:07.58, start: 0.000000, bitrate: 9910 kb/s\n  Stream #0:0(und): Video: h264 (Main) (avc1 / 0x31637661), yuv420p, 1920x1080 [SAR 1:1 DAR 16:9], 9764 kb/s, 30 fps, 30 tbr, 15360 tbn, 60 tbc (default)\n    Metadata:\n      handler_name    : VideoHandler\n      vendor_id       : [0][0][0][0]\n  Stream #0:1(und): Audio: aac (LC) (mp4a / 0x6134706D), 48000 Hz, stereo, fltp, 192 kb/s (default)\n    Metadata:\n      handler_name    : SoundHandler\n      vendor_id       : [0][0][0][0]\nStream mapping:\n  Stream #0:0 -> #0:0 (h264 (native) -> h264 (libx264))\n  Stream #0:1 -> #0:1 (aac (native) -> aac (native))\nPress [q] to stop, [?] for help\n\u001b[1;36m[libx264 @ 0x59c4ed3d1a80] \u001b[0musing SAR=1/1\n\u001b[1;36m[libx264 @ 0x59c4ed3d1a80] \u001b[0musing cpu capabilities: MMX2 SSE2Fast SSSE3 SSE4.2 AVX FMA3 BMI2 AVX2 AVX512\n\u001b[1;36m[libx264 @ 0x59c4ed3d1a80] \u001b[0mprofile High, level 4.0, 4:2:0, 8-bit\n\u001b[1;36m[libx264 @ 0x59c4ed3d1a80] \u001b[0m264 - core 163 r3060 5db6aa6 - H.264/MPEG-4 AVC codec - Copyleft 2003-2021 - http://www.videolan.org/x264.html - options: cabac=1 ref=3 deblock=1:0:0 analyse=0x3:0x113 me=hex subme=7 psy=1 psy_rd=1.00:0.00 mixed_ref=1 me_range=16 chroma_me=1 trellis=1 8x8dct=1 cqm=0 deadzone=21,11 fast_pskip=1 chroma_qp_offset=-2 threads=6 lookahead_threads=1 sliced_threads=0 nr=0 decimate=1 interlaced=0 bluray_compat=0 constrained_intra=0 bframes=3 b_pyramid=2 b_adapt=1 b_bias=0 direct=1 weightb=1 open_gop=0 weightp=2 keyint=250 keyint_min=25 scenecut=40 intra_refresh=0 rc_lookahead=40 rc=crf mbtree=1 crf=20.0 qcomp=0.60 qpmin=0 qpmax=69 qpstep=4 ip_ratio=1.40 aq=1:1.00\nOutput #0, mp4, to 'preprocessed_face5.mp4':\n  Metadata:\n    major_brand     : isom\n    minor_version   : 512\n    compatible_brands: isomiso2avc1mp41\n    comment         : Create videos with https://clipchamp.com/en/video-editor - free online video editor, video compressor, video converter.\n    encoder         : Lavf58.76.100\n  Stream #0:0(und): Video: h264 (avc1 / 0x31637661), yuv420p(progressive), 1920x1080 [SAR 1:1 DAR 16:9], q=2-31, 30 fps, 15360 tbn (default)\n    Metadata:\n      handler_name    : VideoHandler\n      vendor_id       : [0][0][0][0]\n      encoder         : Lavc58.134.100 libx264\n    Side data:\n      cpb: bitrate max/min/avg: 0/0/0 buffer size: 0 vbv_delay: N/A\n  Stream #0:1(und): Audio: aac (LC) (mp4a / 0x6134706D), 48000 Hz, stereo, fltp, 128 kb/s (default)\n    Metadata:\n      handler_name    : SoundHandler\n      vendor_id       : [0][0][0][0]\n      encoder         : Lavc58.134.100 aac\nframe=  226 fps= 22 q=-1.0 Lsize=    2327kB time=00:00:07.53 bitrate=2531.7kbits/s speed=0.747x    \nvideo:2199kB audio:119kB subtitle:0kB other streams:0kB global headers:0kB muxing overhead: 0.408429%\n\u001b[1;36m[libx264 @ 0x59c4ed3d1a80] \u001b[0mframe I:1     Avg QP:16.07  size: 73759\n\u001b[1;36m[libx264 @ 0x59c4ed3d1a80] \u001b[0mframe P:82    Avg QP:16.35  size: 19655\n\u001b[1;36m[libx264 @ 0x59c4ed3d1a80] \u001b[0mframe B:143   Avg QP:21.05  size:  3957\n\u001b[1;36m[libx264 @ 0x59c4ed3d1a80] \u001b[0mconsecutive B-frames: 13.3%  4.4%  8.0% 74.3%\n\u001b[1;36m[libx264 @ 0x59c4ed3d1a80] \u001b[0mmb I  I16..4: 30.6% 56.1% 13.3%\n\u001b[1;36m[libx264 @ 0x59c4ed3d1a80] \u001b[0mmb P  I16..4:  2.1%  2.5%  0.4%  P16..4: 26.7%  8.5%  4.7%  0.0%  0.0%    skip:55.1%\n\u001b[1;36m[libx264 @ 0x59c4ed3d1a80] \u001b[0mmb B  I16..4:  0.1%  0.1%  0.0%  B16..8: 23.8%  0.9%  0.1%  direct: 0.8%  skip:74.2%  L0:48.0% L1:49.0% BI: 3.0%\n\u001b[1;36m[libx264 @ 0x59c4ed3d1a80] \u001b[0m8x8 transform intra:51.9% inter:76.1%\n\u001b[1;36m[libx264 @ 0x59c4ed3d1a80] \u001b[0mcoded y,uvDC,uvAC intra: 39.6% 51.6% 28.0% inter: 6.9% 7.7% 0.3%\n\u001b[1;36m[libx264 @ 0x59c4ed3d1a80] \u001b[0mi16 v,h,dc,p: 48% 22% 18% 12%\n\u001b[1;36m[libx264 @ 0x59c4ed3d1a80] \u001b[0mi8 v,h,dc,ddl,ddr,vr,hd,vl,hu: 35% 12% 38%  2%  2%  4%  2%  3%  2%\n\u001b[1;36m[libx264 @ 0x59c4ed3d1a80] \u001b[0mi4 v,h,dc,ddl,ddr,vr,hd,vl,hu: 47% 17% 22%  2%  3%  4%  2%  2%  1%\n\u001b[1;36m[libx264 @ 0x59c4ed3d1a80] \u001b[0mi8c dc,h,v,p: 59% 18% 19%  4%\n\u001b[1;36m[libx264 @ 0x59c4ed3d1a80] \u001b[0mWeighted P-Frames: Y:0.0% UV:0.0%\n\u001b[1;36m[libx264 @ 0x59c4ed3d1a80] \u001b[0mref P L0: 72.5%  9.1% 14.1%  4.4%\n\u001b[1;36m[libx264 @ 0x59c4ed3d1a80] \u001b[0mref B L0: 90.5%  8.3%  1.2%\n\u001b[1;36m[libx264 @ 0x59c4ed3d1a80] \u001b[0mref B L1: 96.1%  3.9%\n\u001b[1;36m[libx264 @ 0x59c4ed3d1a80] \u001b[0mkb/s:2390.70\n\u001b[1;36m[aac @ 0x59c4ed3d2cc0] \u001b[0mQavg: 156.201\n","output_type":"stream"}],"execution_count":6},{"cell_type":"code","source":"os.makedirs(\"temp\", exist_ok=True)\nos.makedirs(\"results\", exist_ok=True)\n","metadata":{"trusted":true,"execution":{"iopub.status.busy":"2025-04-17T14:05:42.233497Z","iopub.execute_input":"2025-04-17T14:05:42.234247Z","iopub.status.idle":"2025-04-17T14:05:42.238327Z","shell.execute_reply.started":"2025-04-17T14:05:42.234219Z","shell.execute_reply":"2025-04-17T14:05:42.237645Z"}},"outputs":[],"execution_count":7},{"cell_type":"code","source":"import os\n\nprint(\"Preprocessed video exists:\", os.path.exists(\"preprocessed_face5.mp4\"))\nprint(\"Audio file exists:\", os.path.exists(audio_file))\nprint(\"Checkpoint exists:\", os.path.exists(\"/kaggle/input/wav2lip/Wav2Lip/checkpoints/wav2lip_gan.pth\"))\n\n","metadata":{"trusted":true,"execution":{"iopub.status.busy":"2025-04-17T14:05:43.570239Z","iopub.execute_input":"2025-04-17T14:05:43.570787Z","iopub.status.idle":"2025-04-17T14:05:43.583455Z","shell.execute_reply.started":"2025-04-17T14:05:43.570761Z","shell.execute_reply":"2025-04-17T14:05:43.582678Z"}},"outputs":[{"name":"stdout","text":"Preprocessed video exists: True\nAudio file exists: True\nCheckpoint exists: True\n","output_type":"stream"}],"execution_count":8},{"cell_type":"code","source":"!python /kaggle/input/wav2lip/Wav2Lip/inference.py \\\n--checkpoint_path /kaggle/input/wav2lip/Wav2Lip/checkpoints/wav2lip_gan.pth \\\n--face \"{preprocessed_video}\" \\\n--audio \"{audio_file}\" \\\n--outfile temp/result6.avi \\\n--resize_factor 1 \\\n--fps 25 \\\n--face_det_batch_size 4 \\\n--wav2lip_batch_size 16 \\\n--nosmooth","metadata":{"trusted":true,"execution":{"iopub.status.busy":"2025-04-17T14:05:48.883873Z","iopub.execute_input":"2025-04-17T14:05:48.884392Z","iopub.status.idle":"2025-04-17T14:08:16.039071Z","shell.execute_reply.started":"2025-04-17T14:05:48.884350Z","shell.execute_reply":"2025-04-17T14:08:16.038075Z"}},"outputs":[{"name":"stdout","text":"Using cuda for inference.\nReading video frames...\nNumber of frames available for inference: 226\nExtracting raw audio...\nffmpeg version 4.4.2-0ubuntu0.22.04.1 Copyright (c) 2000-2021 the FFmpeg developers\n  built with gcc 11 (Ubuntu 11.2.0-19ubuntu1)\n  configuration: --prefix=/usr --extra-version=0ubuntu0.22.04.1 --toolchain=hardened --libdir=/usr/lib/x86_64-linux-gnu --incdir=/usr/include/x86_64-linux-gnu --arch=amd64 --enable-gpl --disable-stripping --enable-gnutls --enable-ladspa --enable-libaom --enable-libass --enable-libbluray --enable-libbs2b --enable-libcaca --enable-libcdio --enable-libcodec2 --enable-libdav1d --enable-libflite --enable-libfontconfig --enable-libfreetype --enable-libfribidi --enable-libgme --enable-libgsm --enable-libjack --enable-libmp3lame --enable-libmysofa --enable-libopenjpeg --enable-libopenmpt --enable-libopus --enable-libpulse --enable-librabbitmq --enable-librubberband --enable-libshine --enable-libsnappy --enable-libsoxr --enable-libspeex --enable-libsrt --enable-libssh --enable-libtheora --enable-libtwolame --enable-libvidstab --enable-libvorbis --enable-libvpx --enable-libwebp --enable-libx265 --enable-libxml2 --enable-libxvid --enable-libzimg --enable-libzmq --enable-libzvbi --enable-lv2 --enable-omx --enable-openal --enable-opencl --enable-opengl --enable-sdl2 --enable-pocketsphinx --enable-librsvg --enable-libmfx --enable-libdc1394 --enable-libdrm --enable-libiec61883 --enable-chromaprint --enable-frei0r --enable-libx264 --enable-shared\n  libavutil      56. 70.100 / 56. 70.100\n  libavcodec     58.134.100 / 58.134.100\n  libavformat    58. 76.100 / 58. 76.100\n  libavdevice    58. 13.100 / 58. 13.100\n  libavfilter     7.110.100 /  7.110.100\n  libswscale      5.  9.100 /  5.  9.100\n  libswresample   3.  9.100 /  3.  9.100\n  libpostproc    55.  9.100 / 55.  9.100\n\u001b[0;35m[mp3 @ 0x5ce757d20580] \u001b[0m\u001b[0;33mEstimating duration from bitrate, this may be inaccurate\n\u001b[0mInput #0, mp3, from '/kaggle/input/modi-voice/tts-audio-2025-04-01T16_07_18.848Z.mp3':\n  Metadata:\n    encoder         : Lavf58.29.100\n  Duration: 00:00:10.66, start: 0.000000, bitrate: 192 kb/s\n  Stream #0:0: Audio: mp3, 48000 Hz, mono, fltp, 192 kb/s\nStream mapping:\n  Stream #0:0 -> #0:0 (mp3 (mp3float) -> pcm_s16le (native))\nPress [q] to stop, [?] for help\nOutput #0, wav, to 'temp/temp.wav':\n  Metadata:\n    ISFT            : Lavf58.76.100\n  Stream #0:0: Audio: pcm_s16le ([1][0][0][0] / 0x0001), 48000 Hz, mono, s16, 768 kb/s\n    Metadata:\n      encoder         : Lavc58.134.100 pcm_s16le\nsize=     999kB time=00:00:10.63 bitrate= 769.8kbits/s speed= 323x    \nvideo:0kB audio:999kB subtitle:0kB other streams:0kB global headers:0kB muxing overhead: 0.007625%\n/kaggle/input/wav2lip/Wav2Lip/audio.py:100: FutureWarning: Pass sr=16000, n_fft=800 as keyword args. From version 0.10 passing these as positional arguments will result in an error\n  return librosa.filters.mel(hp.sample_rate, hp.n_fft, n_mels=hp.num_mels,\n(80, 853)\nLength of mel chunks: 316\n  0%|                                                    | 0/20 [00:00<?, ?it/s]/kaggle/input/wav2lip/Wav2Lip/face_detection/detection/sfd/sfd_detector.py:24: FutureWarning: You are using `torch.load` with `weights_only=False` (the current default value), which uses the default pickle module implicitly. It is possible to construct malicious pickle data which will execute arbitrary code during unpickling (See https://github.com/pytorch/pytorch/blob/main/SECURITY.md#untrusted-models for more details). In a future release, the default value for `weights_only` will be flipped to `True`. This limits the functions that could be executed during unpickling. Arbitrary objects will no longer be allowed to be loaded via this mode unless they are explicitly allowlisted by the user via `torch.serialization.add_safe_globals`. We recommend you start setting `weights_only=True` for any use case where you don't have full control of the loaded file. Please open an issue on GitHub for any issues related to this experimental feature.\n  model_weights = torch.load(path_to_detector)\n\n  0%|                                                    | 0/57 [00:00<?, ?it/s]\u001b[A\n  2%|▊                                           | 1/57 [00:22<20:56, 22.43s/it]\u001b[A\n  4%|█▌                                          | 2/57 [00:23<09:18, 10.15s/it]\u001b[A\n  5%|██▎                                         | 3/57 [00:25<05:35,  6.21s/it]\u001b[A\n  7%|███                                         | 4/57 [00:27<03:51,  4.37s/it]\u001b[A\n  9%|███▊                                        | 5/57 [00:28<02:53,  3.35s/it]\u001b[A\n 11%|████▋                                       | 6/57 [00:30<02:19,  2.73s/it]\u001b[A\n 12%|█████▍                                      | 7/57 [00:31<01:56,  2.33s/it]\u001b[A\n 14%|██████▏                                     | 8/57 [00:33<01:41,  2.08s/it]\u001b[A\n 16%|██████▉                                     | 9/57 [00:34<01:31,  1.90s/it]\u001b[A\n 18%|███████▌                                   | 10/57 [00:36<01:23,  1.79s/it]\u001b[A\n 19%|████████▎                                  | 11/57 [00:37<01:18,  1.72s/it]\u001b[A\n 21%|█████████                                  | 12/57 [00:39<01:14,  1.66s/it]\u001b[A\n 23%|█████████▊                                 | 13/57 [00:40<01:11,  1.62s/it]\u001b[A\n 25%|██████████▌                                | 14/57 [00:42<01:08,  1.60s/it]\u001b[A\n 26%|███████████▎                               | 15/57 [00:43<01:06,  1.57s/it]\u001b[A\n 28%|████████████                               | 16/57 [00:45<01:03,  1.56s/it]\u001b[A\n 30%|████████████▊                              | 17/57 [00:46<01:02,  1.55s/it]\u001b[A\n 32%|█████████████▌                             | 18/57 [00:48<01:00,  1.54s/it]\u001b[A\n 33%|██████████████▎                            | 19/57 [00:50<00:58,  1.54s/it]\u001b[A\n 35%|███████████████                            | 20/57 [00:51<00:57,  1.54s/it]\u001b[A\n 37%|███████████████▊                           | 21/57 [00:53<00:55,  1.55s/it]\u001b[A\n 39%|████████████████▌                          | 22/57 [00:54<00:54,  1.56s/it]\u001b[A\n 40%|█████████████████▎                         | 23/57 [00:56<00:52,  1.55s/it]\u001b[A\n 42%|██████████████████                         | 24/57 [00:57<00:51,  1.56s/it]\u001b[A\n 44%|██████████████████▊                        | 25/57 [00:59<00:49,  1.55s/it]\u001b[A\n 46%|███████████████████▌                       | 26/57 [01:00<00:48,  1.55s/it]\u001b[A\n 47%|████████████████████▎                      | 27/57 [01:02<00:46,  1.56s/it]\u001b[A\n 49%|█████████████████████                      | 28/57 [01:04<00:45,  1.56s/it]\u001b[A\n 51%|█████████████████████▉                     | 29/57 [01:05<00:43,  1.57s/it]\u001b[A\n 53%|██████████████████████▋                    | 30/57 [01:07<00:42,  1.57s/it]\u001b[A\n 54%|███████████████████████▍                   | 31/57 [01:08<00:40,  1.57s/it]\u001b[A\n 56%|████████████████████████▏                  | 32/57 [01:10<00:39,  1.57s/it]\u001b[A\n 58%|████████████████████████▉                  | 33/57 [01:11<00:37,  1.57s/it]\u001b[A\n 60%|█████████████████████████▋                 | 34/57 [01:13<00:36,  1.58s/it]\u001b[A\n 61%|██████████████████████████▍                | 35/57 [01:15<00:34,  1.58s/it]\u001b[A\n 63%|███████████████████████████▏               | 36/57 [01:16<00:33,  1.58s/it]\u001b[A\n 65%|███████████████████████████▉               | 37/57 [01:18<00:31,  1.58s/it]\u001b[A\n 67%|████████████████████████████▋              | 38/57 [01:19<00:29,  1.58s/it]\u001b[A\n 68%|█████████████████████████████▍             | 39/57 [01:21<00:28,  1.58s/it]\u001b[A\n 70%|██████████████████████████████▏            | 40/57 [01:22<00:26,  1.58s/it]\u001b[A\n 72%|██████████████████████████████▉            | 41/57 [01:24<00:25,  1.58s/it]\u001b[A\n 74%|███████████████████████████████▋           | 42/57 [01:26<00:23,  1.59s/it]\u001b[A\n 75%|████████████████████████████████▍          | 43/57 [01:27<00:22,  1.59s/it]\u001b[A\n 77%|█████████████████████████████████▏         | 44/57 [01:29<00:20,  1.59s/it]\u001b[A\n 79%|█████████████████████████████████▉         | 45/57 [01:30<00:19,  1.58s/it]\u001b[A\n 81%|██████████████████████████████████▋        | 46/57 [01:32<00:17,  1.58s/it]\u001b[A\n 82%|███████████████████████████████████▍       | 47/57 [01:34<00:15,  1.58s/it]\u001b[A\n 84%|████████████████████████████████████▏      | 48/57 [01:35<00:14,  1.59s/it]\u001b[A\n 86%|████████████████████████████████████▉      | 49/57 [01:37<00:12,  1.59s/it]\u001b[A\n 88%|█████████████████████████████████████▋     | 50/57 [01:38<00:11,  1.60s/it]\u001b[A\n 89%|██████████████████████████████████████▍    | 51/57 [01:40<00:09,  1.60s/it]\u001b[A\n 91%|███████████████████████████████████████▏   | 52/57 [01:42<00:08,  1.60s/it]\u001b[A\n 93%|███████████████████████████████████████▉   | 53/57 [01:43<00:06,  1.60s/it]\u001b[A\n 95%|████████████████████████████████████████▋  | 54/57 [01:45<00:04,  1.60s/it]\u001b[A\n 96%|█████████████████████████████████████████▍ | 55/57 [01:46<00:03,  1.60s/it]\u001b[A\n 98%|██████████████████████████████████████████▏| 56/57 [01:48<00:01,  1.61s/it]\u001b[A\n100%|███████████████████████████████████████████| 57/57 [02:01<00:00,  2.13s/it]\u001b[A\nLoad checkpoint from: /kaggle/input/wav2lip/Wav2Lip/checkpoints/wav2lip_gan.pth\n/kaggle/input/wav2lip/Wav2Lip/inference.py:162: FutureWarning: You are using `torch.load` with `weights_only=False` (the current default value), which uses the default pickle module implicitly. It is possible to construct malicious pickle data which will execute arbitrary code during unpickling (See https://github.com/pytorch/pytorch/blob/main/SECURITY.md#untrusted-models for more details). In a future release, the default value for `weights_only` will be flipped to `True`. This limits the functions that could be executed during unpickling. Arbitrary objects will no longer be allowed to be loaded via this mode unless they are explicitly allowlisted by the user via `torch.serialization.add_safe_globals`. We recommend you start setting `weights_only=True` for any use case where you don't have full control of the loaded file. Please open an issue on GitHub for any issues related to this experimental feature.\n  checkpoint = torch.load(checkpoint_path)\nModel loaded\n100%|███████████████████████████████████████████| 20/20 [02:16<00:00,  6.82s/it]\nffmpeg version 4.4.2-0ubuntu0.22.04.1 Copyright (c) 2000-2021 the FFmpeg developers\n  built with gcc 11 (Ubuntu 11.2.0-19ubuntu1)\n  configuration: --prefix=/usr --extra-version=0ubuntu0.22.04.1 --toolchain=hardened --libdir=/usr/lib/x86_64-linux-gnu --incdir=/usr/include/x86_64-linux-gnu --arch=amd64 --enable-gpl --disable-stripping --enable-gnutls --enable-ladspa --enable-libaom --enable-libass --enable-libbluray --enable-libbs2b --enable-libcaca --enable-libcdio --enable-libcodec2 --enable-libdav1d --enable-libflite --enable-libfontconfig --enable-libfreetype --enable-libfribidi --enable-libgme --enable-libgsm --enable-libjack --enable-libmp3lame --enable-libmysofa --enable-libopenjpeg --enable-libopenmpt --enable-libopus --enable-libpulse --enable-librabbitmq --enable-librubberband --enable-libshine --enable-libsnappy --enable-libsoxr --enable-libspeex --enable-libsrt --enable-libssh --enable-libtheora --enable-libtwolame --enable-libvidstab --enable-libvorbis --enable-libvpx --enable-libwebp --enable-libx265 --enable-libxml2 --enable-libxvid --enable-libzimg --enable-libzmq --enable-libzvbi --enable-lv2 --enable-omx --enable-openal --enable-opencl --enable-opengl --enable-sdl2 --enable-pocketsphinx --enable-librsvg --enable-libmfx --enable-libdc1394 --enable-libdrm --enable-libiec61883 --enable-chromaprint --enable-frei0r --enable-libx264 --enable-shared\n  libavutil      56. 70.100 / 56. 70.100\n  libavcodec     58.134.100 / 58.134.100\n  libavformat    58. 76.100 / 58. 76.100\n  libavdevice    58. 13.100 / 58. 13.100\n  libavfilter     7.110.100 /  7.110.100\n  libswscale      5.  9.100 /  5.  9.100\n  libswresample   3.  9.100 /  3.  9.100\n  libpostproc    55.  9.100 / 55.  9.100\n\u001b[0;33mGuessed Channel Layout for Input Stream #0.0 : mono\n\u001b[0mInput #0, wav, from 'temp/temp.wav':\n  Metadata:\n    encoder         : Lavf58.76.100\n  Duration: 00:00:10.66, bitrate: 768 kb/s\n  Stream #0:0: Audio: pcm_s16le ([1][0][0][0] / 0x0001), 48000 Hz, mono, s16, 768 kb/s\nInput #1, avi, from 'temp/result.avi':\n  Metadata:\n    software        : Lavf59.27.100\n  Duration: 00:00:10.53, start: 0.000000, bitrate: 3604 kb/s\n  Stream #1:0: Video: mpeg4 (Simple Profile) (DIVX / 0x58564944), yuv420p, 1920x1080 [SAR 1:1 DAR 16:9], 3602 kb/s, 30 fps, 30 tbr, 30 tbn, 30 tbc\nStream mapping:\n  Stream #1:0 -> #0:0 (mpeg4 (native) -> mpeg4 (native))\n  Stream #0:0 -> #0:1 (pcm_s16le (native) -> mp3 (libmp3lame))\nPress [q] to stop, [?] for help\nOutput #0, avi, to 'temp/result6.avi':\n  Metadata:\n    ISFT            : Lavf58.76.100\n  Stream #0:0: Video: mpeg4 (FMP4 / 0x34504D46), yuv420p(progressive), 1920x1080 [SAR 1:1 DAR 16:9], q=2-31, 200 kb/s, 30 fps, 30 tbn\n    Metadata:\n      encoder         : Lavc58.134.100 mpeg4\n    Side data:\n      cpb: bitrate max/min/avg: 0/0/200000 buffer size: 0 vbv_delay: N/A\n  Stream #0:1: Audio: mp3 (U[0][0][0] / 0x0055), 48000 Hz, mono, s16p\n    Metadata:\n      encoder         : Lavc58.134.100 libmp3lame\nframe=  316 fps=182 q=1.0 Lsize=    5566kB time=00:00:10.63 bitrate=4288.5kbits/s speed=6.13x    \nvideo:5455kB audio:83kB subtitle:0kB other streams:0kB global headers:0kB muxing overhead: 0.501566%\n\u001b[0m","output_type":"stream"}],"execution_count":9},{"cell_type":"code","source":"!ffmpeg -i temp/result6.avi -vcodec libx264 -acodec aac results/result6.mp4\n","metadata":{"trusted":true,"execution":{"iopub.status.busy":"2025-04-17T14:33:06.713263Z","iopub.execute_input":"2025-04-17T14:33:06.714049Z","iopub.status.idle":"2025-04-17T14:33:18.238357Z","shell.execute_reply.started":"2025-04-17T14:33:06.714019Z","shell.execute_reply":"2025-04-17T14:33:18.237663Z"}},"outputs":[{"name":"stdout","text":"ffmpeg version 4.4.2-0ubuntu0.22.04.1 Copyright (c) 2000-2021 the FFmpeg developers\n  built with gcc 11 (Ubuntu 11.2.0-19ubuntu1)\n  configuration: --prefix=/usr --extra-version=0ubuntu0.22.04.1 --toolchain=hardened --libdir=/usr/lib/x86_64-linux-gnu --incdir=/usr/include/x86_64-linux-gnu --arch=amd64 --enable-gpl --disable-stripping --enable-gnutls --enable-ladspa --enable-libaom --enable-libass --enable-libbluray --enable-libbs2b --enable-libcaca --enable-libcdio --enable-libcodec2 --enable-libdav1d --enable-libflite --enable-libfontconfig --enable-libfreetype --enable-libfribidi --enable-libgme --enable-libgsm --enable-libjack --enable-libmp3lame --enable-libmysofa --enable-libopenjpeg --enable-libopenmpt --enable-libopus --enable-libpulse --enable-librabbitmq --enable-librubberband --enable-libshine --enable-libsnappy --enable-libsoxr --enable-libspeex --enable-libsrt --enable-libssh --enable-libtheora --enable-libtwolame --enable-libvidstab --enable-libvorbis --enable-libvpx --enable-libwebp --enable-libx265 --enable-libxml2 --enable-libxvid --enable-libzimg --enable-libzmq --enable-libzvbi --enable-lv2 --enable-omx --enable-openal --enable-opencl --enable-opengl --enable-sdl2 --enable-pocketsphinx --enable-librsvg --enable-libmfx --enable-libdc1394 --enable-libdrm --enable-libiec61883 --enable-chromaprint --enable-frei0r --enable-libx264 --enable-shared\n  libavutil      56. 70.100 / 56. 70.100\n  libavcodec     58.134.100 / 58.134.100\n  libavformat    58. 76.100 / 58. 76.100\n  libavdevice    58. 13.100 / 58. 13.100\n  libavfilter     7.110.100 /  7.110.100\n  libswscale      5.  9.100 /  5.  9.100\n  libswresample   3.  9.100 /  3.  9.100\n  libpostproc    55.  9.100 / 55.  9.100\nInput #0, avi, from 'temp/result6.avi':\n  Metadata:\n    software        : Lavf58.76.100\n  Duration: 00:00:10.68, start: 0.000000, bitrate: 4269 kb/s\n  Stream #0:0: Video: mpeg4 (Simple Profile) (FMP4 / 0x34504D46), yuv420p, 1920x1080 [SAR 1:1 DAR 16:9], 4242 kb/s, 30 fps, 30 tbr, 30 tbn, 30 tbc\n  Stream #0:1: Audio: mp3 (U[0][0][0] / 0x0055), 48000 Hz, mono, fltp, 64 kb/s\nStream mapping:\n  Stream #0:0 -> #0:0 (mpeg4 (native) -> h264 (libx264))\n  Stream #0:1 -> #0:1 (mp3 (mp3float) -> aac (native))\nPress [q] to stop, [?] for help\n\u001b[1;36m[libx264 @ 0x5b28e59b1240] \u001b[0musing SAR=1/1\n\u001b[1;36m[libx264 @ 0x5b28e59b1240] \u001b[0musing cpu capabilities: MMX2 SSE2Fast SSSE3 SSE4.2 AVX FMA3 BMI2 AVX2 AVX512\n\u001b[1;36m[libx264 @ 0x5b28e59b1240] \u001b[0mprofile High, level 4.0, 4:2:0, 8-bit\n\u001b[1;36m[libx264 @ 0x5b28e59b1240] \u001b[0m264 - core 163 r3060 5db6aa6 - H.264/MPEG-4 AVC codec - Copyleft 2003-2021 - http://www.videolan.org/x264.html - options: cabac=1 ref=3 deblock=1:0:0 analyse=0x3:0x113 me=hex subme=7 psy=1 psy_rd=1.00:0.00 mixed_ref=1 me_range=16 chroma_me=1 trellis=1 8x8dct=1 cqm=0 deadzone=21,11 fast_pskip=1 chroma_qp_offset=-2 threads=6 lookahead_threads=1 sliced_threads=0 nr=0 decimate=1 interlaced=0 bluray_compat=0 constrained_intra=0 bframes=3 b_pyramid=2 b_adapt=1 b_bias=0 direct=1 weightb=1 open_gop=0 weightp=2 keyint=250 keyint_min=25 scenecut=40 intra_refresh=0 rc_lookahead=40 rc=crf mbtree=1 crf=23.0 qcomp=0.60 qpmin=0 qpmax=69 qpstep=4 ip_ratio=1.40 aq=1:1.00\nOutput #0, mp4, to 'results/result6.mp4':\n  Metadata:\n    software        : Lavf58.76.100\n    encoder         : Lavf58.76.100\n  Stream #0:0: Video: h264 (avc1 / 0x31637661), yuv420p(progressive), 1920x1080 [SAR 1:1 DAR 16:9], q=2-31, 30 fps, 15360 tbn\n    Metadata:\n      encoder         : Lavc58.134.100 libx264\n    Side data:\n      cpb: bitrate max/min/avg: 0/0/0 buffer size: 0 vbv_delay: N/A\n  Stream #0:1: Audio: aac (LC) (mp4a / 0x6134706D), 48000 Hz, mono, fltp, 69 kb/s\n    Metadata:\n      encoder         : Lavc58.134.100 aac\nframe=  317 fps= 28 q=-1.0 Lsize=    2726kB time=00:00:10.66 bitrate=2093.9kbits/s dup=1 drop=0 speed=0.945x    \nvideo:2624kB audio:91kB subtitle:0kB other streams:0kB global headers:0kB muxing overhead: 0.428164%\n\u001b[1;36m[libx264 @ 0x5b28e59b1240] \u001b[0mframe I:2     Avg QP:17.30  size: 51616\n\u001b[1;36m[libx264 @ 0x5b28e59b1240] \u001b[0mframe P:223   Avg QP:20.43  size: 10120\n\u001b[1;36m[libx264 @ 0x5b28e59b1240] \u001b[0mframe B:92    Avg QP:22.72  size:  3544\n\u001b[1;36m[libx264 @ 0x5b28e59b1240] \u001b[0mconsecutive B-frames: 53.0% 18.3% 19.9%  8.8%\n\u001b[1;36m[libx264 @ 0x5b28e59b1240] \u001b[0mmb I  I16..4: 30.6% 65.7%  3.7%\n\u001b[1;36m[libx264 @ 0x5b28e59b1240] \u001b[0mmb P  I16..4:  1.2%  6.3%  0.0%  P16..4: 21.8%  3.0%  1.6%  0.0%  0.0%    skip:66.1%\n\u001b[1;36m[libx264 @ 0x5b28e59b1240] \u001b[0mmb B  I16..4:  0.3%  1.0%  0.0%  B16..8: 22.8%  0.8%  0.1%  direct: 0.8%  skip:74.3%  L0:53.2% L1:45.1% BI: 1.7%\n\u001b[1;36m[libx264 @ 0x5b28e59b1240] \u001b[0m8x8 transform intra:81.4% inter:89.3%\n\u001b[1;36m[libx264 @ 0x5b28e59b1240] \u001b[0mcoded y,uvDC,uvAC intra: 38.5% 37.0% 4.7% inter: 4.6% 5.2% 0.1%\n\u001b[1;36m[libx264 @ 0x5b28e59b1240] \u001b[0mi16 v,h,dc,p: 51% 24% 18%  7%\n\u001b[1;36m[libx264 @ 0x5b28e59b1240] \u001b[0mi8 v,h,dc,ddl,ddr,vr,hd,vl,hu: 34% 15% 42%  2%  1%  1%  1%  2%  1%\n\u001b[1;36m[libx264 @ 0x5b28e59b1240] \u001b[0mi4 v,h,dc,ddl,ddr,vr,hd,vl,hu: 50% 15% 12%  2%  5%  8%  4%  4%  1%\n\u001b[1;36m[libx264 @ 0x5b28e59b1240] \u001b[0mi8c dc,h,v,p: 53% 21% 23%  2%\n\u001b[1;36m[libx264 @ 0x5b28e59b1240] \u001b[0mWeighted P-Frames: Y:0.0% UV:0.0%\n\u001b[1;36m[libx264 @ 0x5b28e59b1240] \u001b[0mref P L0: 75.0%  7.7% 12.8%  4.4%\n\u001b[1;36m[libx264 @ 0x5b28e59b1240] \u001b[0mref B L0: 81.1% 16.0%  2.9%\n\u001b[1;36m[libx264 @ 0x5b28e59b1240] \u001b[0mref B L1: 98.9%  1.1%\n\u001b[1;36m[libx264 @ 0x5b28e59b1240] \u001b[0mkb/s:2033.60\n\u001b[1;36m[aac @ 0x5b28e599bb40] \u001b[0mQavg: 1067.017\n","output_type":"stream"}],"execution_count":10},{"cell_type":"code","source":"","metadata":{"trusted":true},"outputs":[],"execution_count":null}]}